<?xml version="1.0" encoding="UTF-8" standalone="no"?>
<!-- Created with Inkscape (http://www.inkscape.org/) -->

<svg
   xmlns:dc="http://purl.org/dc/elements/1.1/"
   xmlns:cc="http://creativecommons.org/ns#"
   xmlns:rdf="http://www.w3.org/1999/02/22-rdf-syntax-ns#"
   xmlns:svg="http://www.w3.org/2000/svg"
   xmlns="http://www.w3.org/2000/svg"
   xmlns:sodipodi="http://sodipodi.sourceforge.net/DTD/sodipodi-0.dtd"
   xmlns:inkscape="http://www.inkscape.org/namespaces/inkscape"
   width="210mm"
   height="297mm"
   viewBox="0 0 210 297"
   version="1.1"
   id="svg957"
   inkscape:export-filename="D:\Unity Projects\Revolution\Assets\Art\Sprites\Items\healthbar\full.png"
   inkscape:export-xdpi="80.199997"
   inkscape:export-ydpi="80.199997"
   inkscape:version="0.92.4 (5da689c313, 2019-01-14)"
   sodipodi:docname="healthbar.svg">
  <defs
     id="defs951" />
  <sodipodi:namedview
     id="base"
     pagecolor="#ffffff"
     bordercolor="#666666"
     borderopacity="1.0"
     inkscape:pageopacity="0.0"
     inkscape:pageshadow="2"
     inkscape:zoom="0.98994949"
     inkscape:cx="372.95867"
     inkscape:cy="608.87003"
     inkscape:document-units="mm"
     inkscape:current-layer="layer1"
     showgrid="false"
     inkscape:snap-nodes="false"
     inkscape:window-width="1920"
     inkscape:window-height="1013"
     inkscape:window-x="-9"
     inkscape:window-y="-9"
     inkscape:window-maximized="1" />
  <metadata
     id="metadata954">
    <rdf:RDF>
      <cc:Work
         rdf:about="">
        <dc:format>image/svg+xml</dc:format>
        <dc:type
           rdf:resource="http://purl.org/dc/dcmitype/StillImage" />
        <dc:title></dc:title>
      </cc:Work>
    </rdf:RDF>
  </metadata>
  <g
     inkscape:label="Layer 1"
     inkscape:groupmode="layer"
     id="layer1">
    <rect
       y="111.51495"
       x="53.721172"
       height="15.768909"
       width="149.1364"
       id="rect1517"
       style="fill:#808080;fill-opacity:1;stroke-width:0.28490993"
       inkscape:export-xdpi="80.199997"
       inkscape:export-ydpi="80.199997" />
    <rect
       style="fill:#cccccc;fill-opacity:1;stroke-width:0.26458332"
       id="rect1502"
       width="145.92915"
       height="13.898022"
       x="55.324791"
       y="111.51495"
       inkscape:export-xdpi="80.199997"
       inkscape:export-ydpi="80.199997" />
    <path
       style="fill:#dbdbdb;fill-opacity:1;stroke-width:0.16330238"
       d="m 104.38773,117.99081 c -0.78017,7.0825 -9.895571,6.45992 -22.332209,6.20859 -11.34969,-0.22937 -22.881026,0.91162 -22.722288,-6.90618 0.06962,-3.42856 10.388552,-5.511 22.722288,-5.511 12.333735,0 22.708749,2.79028 22.332209,6.20859 z"
       id="path1504"
       inkscape:connector-curvature="0"
       sodipodi:nodetypes="sssss"
       inkscape:export-xdpi="80.199997"
       inkscape:export-ydpi="80.199997" />
    <path
       sodipodi:nodetypes="sssss"
       inkscape:connector-curvature="0"
       id="path1507"
       d="m 151.15966,117.72354 c -0.79868,7.0825 -10.13031,6.45992 -22.86199,6.20859 -11.61893,-0.22937 -23.42381,0.91162 -23.26131,-6.90618 0.0713,-3.42856 10.635,-5.511 23.26131,-5.511 12.62633,0 23.24746,2.79028 22.86199,6.20859 z"
       style="fill:#dbdbdb;fill-opacity:1;stroke-width:0.16522799"
       inkscape:export-xdpi="80.199997"
       inkscape:export-ydpi="80.199997" />
    <path
       style="fill:#dbdbdb;fill-opacity:1;stroke-width:0.16807505"
       d="m 199.26783,117.72354 c -0.82644,7.0825 -10.48244,6.45992 -23.65665,6.20859 -12.0228,-0.22937 -24.23801,0.91162 -24.06986,-6.90618 0.0737,-3.42856 11.00466,-5.511 24.06986,-5.511 13.06521,0 24.05552,2.79028 23.65665,6.20859 z"
       id="path1509"
       inkscape:connector-curvature="0"
       sodipodi:nodetypes="sssss"
       inkscape:export-xdpi="80.199997"
       inkscape:export-ydpi="80.199997" />
    <path
       sodipodi:nodetypes="sssss"
       inkscape:connector-curvature="0"
       id="path1511"
       d="m 104.38773,116.11992 c -0.78017,7.0825 -9.895571,6.45992 -22.332209,6.20859 -11.34969,-0.22937 -22.881026,0.91162 -22.722288,-6.90618 0.06962,-3.42856 10.388552,-5.511 22.722288,-5.511 12.333735,0 22.708749,2.79028 22.332209,6.20859 z"
       style="fill:#ff5555;fill-opacity:1;stroke-width:0.16330238"
       inkscape:export-xdpi="80.199997"
       inkscape:export-ydpi="80.199997" />
    <path
       style="fill:#ff5555;fill-opacity:1;stroke-width:0.16522799"
       d="m 151.15966,115.85265 c -0.79868,7.0825 -10.13031,6.45992 -22.86199,6.20859 -11.61893,-0.22937 -23.42381,0.91162 -23.26131,-6.90618 0.0713,-3.42856 10.635,-5.511 23.26131,-5.511 12.62633,0 23.24746,2.79028 22.86199,6.20859 z"
       id="path1513"
       inkscape:connector-curvature="0"
       sodipodi:nodetypes="sssss"
       inkscape:export-xdpi="80.199997"
       inkscape:export-ydpi="80.199997" />
    <path
       sodipodi:nodetypes="sssss"
       inkscape:connector-curvature="0"
       id="path1515"
       d="m 199.26783,115.85265 c -0.82644,7.0825 -10.48244,6.45992 -23.65665,6.20859 -12.0228,-0.22937 -24.23801,0.91162 -24.06986,-6.90618 0.0737,-3.42856 11.00466,-5.511 24.06986,-5.511 13.06521,0 24.05552,2.79028 23.65665,6.20859 z"
       style="fill:#ff5555;fill-opacity:1;stroke-width:0.16807505" />
  </g>
</svg>
